<svg width="12" height="14" viewBox="-1 -1 14 16" fill="none" xmlns="http://www.w3.org/2000/svg">
<path d="M5.5 9.5C4.39543 9.5 3.5 10.3954 3.5 11.5C3.5 12.6046 4.39543 13.5 5.5 13.5C6.60457 13.5 7.5 12.6046 7.5 11.5C7.5 10.3954 6.60457 9.5 5.5 9.5ZM5.5 9.5V0.5M5.5 0.5L4 2M5.5 0.5L7 2M4.53 9.78C3.95693 9.60876 3.42776 9.31539 2.97892 8.92006C2.53009 8.52474 2.17223 8.03686 1.93 7.49M5.53 8.6C6.29762 8.368 7.00645 7.97384 7.60856 7.4442C8.21067 6.91455 8.692 6.26176 9.02 5.53M3 6.25C3 6.94036 2.44036 7.5 1.75 7.5C1.05964 7.5 0.5 6.94036 0.5 6.25C0.5 5.55964 1.05964 5 1.75 5C2.44036 5 3 5.55964 3 6.25ZM10.56 4.32C10.56 5.01036 10.0004 5.57 9.31 5.57C8.61964 5.57 8.06 5.01036 8.06 4.32C8.06 3.62964 8.61964 3.07 9.31 3.07C10.0004 3.07 10.56 3.62964 10.56 4.32Z" stroke="#fffffe" stroke-width="1.8" stroke-linecap="round" stroke-linejoin="round"/>
</svg>
