<svg width="14" height="13" viewBox="-1 -1 16 15" fill="none" xmlns="http://www.w3.org/2000/svg">
<path d="M12.5 6.5C13.0523 6.5 13.5 6.05228 13.5 5.5V1.5C13.5 0.947715 13.0523 0.5 12.5 0.5H1.5C0.947715 0.5 0.5 0.947715 0.5 1.5V5.5C0.5 6.05228 0.947715 6.5 1.5 6.5M12.5 6.5H1.5M12.5 6.5C12.7652 6.5 13.0196 6.60536 13.2071 6.79289C13.3946 6.98043 13.5 7.23478 13.5 7.5V11.5C13.5 11.7652 13.3946 12.0196 13.2071 12.2071C13.0196 12.3946 12.7652 12.5 12.5 12.5H1.5C1.23478 12.5 0.98043 12.3946 0.792893 12.2071C0.605357 12.0196 0.5 11.7652 0.5 11.5V7.5C0.5 7.23478 0.605357 6.98043 0.792893 6.79289C0.98043 6.60536 1.23478 6.5 1.5 6.5M7.5 3.5H11M7.5 9.5H11M4 3.5C4 3.77614 3.77614 4 3.5 4C3.22386 4 3 3.77614 3 3.5C3 3.22386 3.22386 3 3.5 3C3.77614 3 4 3.22386 4 3.5ZM4 9.5C4 9.77614 3.77614 10 3.5 10C3.22386 10 3 9.77614 3 9.5C3 9.22386 3.22386 9 3.5 9C3.77614 9 4 9.22386 4 9.5Z" stroke="#fffffe" stroke-width="1.8" stroke-linecap="round" stroke-linejoin="round"/>
</svg>
