<svg width="92" height="93" viewBox="0 0 92 93" fill="none" xmlns="http://www.w3.org/2000/svg">
<path d="M44.9155 93C53.5946 93 62.1004 90.571 69.4707 85.9879C76.841 81.4048 82.7815 74.8504 86.6201 67.0664C90.4588 59.2824 92.0423 50.5795 91.1916 41.9422C90.3409 33.305 87.09 25.0782 81.8065 18.1926C76.523 11.3071 69.418 6.03758 61.2952 2.98039C53.1724 -0.0768087 44.3561 -0.799702 35.8439 0.893496C27.3316 2.58669 19.463 6.6284 13.1285 12.5613C6.79398 18.4943 2.2463 26.0816 0 34.4649L10.227 37.2052C11.9618 30.7307 15.474 24.871 20.3662 20.289C25.2584 15.7069 31.3353 12.5855 37.9094 11.2778C44.4835 9.97015 51.2924 10.5284 57.5656 12.8895C63.8389 15.2506 69.3262 19.3203 73.4066 24.638C77.4871 29.9558 79.9979 36.3094 80.6549 42.98C81.3119 49.6506 80.0889 56.372 77.1243 62.3836C74.1596 68.3952 69.5718 73.4572 63.8796 76.9968C58.1875 80.5363 51.6184 82.4123 44.9155 82.4123V93Z" fill="#F9F9F9"/>
<path d="M26.4156 67C26.4156 72.5229 21.9384 77 16.4156 77C10.8927 77 6.41555 72.5229 6.41555 67C6.41555 61.4772 10.8927 57 16.4156 57C21.9384 57 26.4156 61.4772 26.4156 67Z" fill="#F9F9F9"/>
</svg>
